<svg id="_500px" data-name="500px" xmlns="http://www.w3.org/2000/svg" width="100" height="128.18" viewBox="0 0 100 128.18">
  <path id="Tracé_136" data-name="Tracé 136" d="M9.751,24.736c-1,.94,3.411,4.686,4.714,2.977.363-.328,4.323-4.344,4.714-4.728,0,0,5.255,5.12,5.8,5.12a3.391,3.391,0,0,0,2.293-1.211c1.923-1.916.961-2.962.47-3.525l-4.493-4.387,4.686-4.757c1.04-1.111.15-2.236-.712-3.2-1.3-1.282-2.556-1.609-3.354-.89L19.193,14.8l-4.657-4.657a1.2,1.2,0,0,0-.883-.32,3.815,3.815,0,0,0-2.186,1.289c-1.438,1.438-1.759,2.5-.947,3.29l4.736,4.736Z" transform="translate(37.572 52.642)" fill="#fff"/>
  <path id="Tracé_137" data-name="Tracé 137" d="M30.432,2.884a57.078,57.078,0,0,0-21.442,4.3,1.646,1.646,0,0,0-1.068,1.46A5.671,5.671,0,0,0,8.471,11.3c.356.968,1.332,3.375,3.219,2.649a53.418,53.418,0,0,1,18.75-3.61,50.563,50.563,0,0,1,19.8,4.016,55.453,55.453,0,0,1,14.8,9.542,1.768,1.768,0,0,0,1.168.484c1.018,0,1.944-.976,2.77-1.93,1.36-1.524,2.307-2.813.961-4.095A54.5,54.5,0,0,0,53.113,7.442,57.967,57.967,0,0,0,30.432,2.884Z" transform="translate(27.158 10.532)" fill="#fff"/>
  <path id="Tracé_138" data-name="Tracé 138" d="M98.767,40.469a2.747,2.747,0,0,0-2.2.847h0A49.879,49.879,0,0,1,80.416,52.148a50.51,50.51,0,0,1-19.79,3.924,50.1,50.1,0,0,1-19.761-4.016,51.429,51.429,0,0,1-16.151-10.9A49.883,49.883,0,0,1,13.826,25.009a64.7,64.7,0,0,1-3.354-11.7c-.32-1.709-1.837-1.773-4.038-1.446-.912.15-3.7.563-3.439,2.564V14.5A60.041,60.041,0,0,0,6.876,27.993a59.209,59.209,0,0,0,12.5,18.543A59.476,59.476,0,0,0,37.924,59.048a58.022,58.022,0,0,0,22.8,4.586,57.444,57.444,0,0,0,22.7-4.593c13.089-6.38,18.543-12.512,18.543-12.512,1.3-1.453,1.616-2.257-.712-4.579A15.959,15.959,0,0,0,98.767,40.469Z" transform="translate(-2.979 64.546)" fill="#fff"/>
  <path id="Tracé_139" data-name="Tracé 139" d="M7.289,88.5a41.789,41.789,0,0,0,22.389,22.4,42.681,42.681,0,0,0,16.364,3.283A42.013,42.013,0,0,0,62.4,110.9,41.858,41.858,0,0,0,84.81,88.5a42.1,42.1,0,0,0,0-32.664,42.134,42.134,0,0,0-22.3-22.389,42.188,42.188,0,0,0-16.371-3.283,42.736,42.736,0,0,0-16.535,3.283A56.391,56.391,0,0,0,14.517,43.8V8.89H72.626C74.7,8.862,74.7,5.914,74.7,4.931,74.7,3.969,74.7,1,72.633,1H9.3A2.725,2.725,0,0,0,6.535,3.735V52.443c0,1.524,1.944,2.649,3.767,3.048,3.561.748,4.372-.4,5.248-1.6h0a69.1,69.1,0,0,1,5.6-6.366,34.487,34.487,0,0,1,48.623,0,34.332,34.332,0,0,1,0,48.495,34.876,34.876,0,0,1-24.482,10.012,32.977,32.977,0,0,1-17.326-4.778V71.648a17.989,17.989,0,0,1,4.579-11.493,16.75,16.75,0,0,1,12.69-5.69,17.671,17.671,0,0,1,12.519,5.092,17.214,17.214,0,0,1,5.049,12.27A17.459,17.459,0,0,1,45.088,89.4a30.969,30.969,0,0,1-5.562-.89c-2-.62-2.884,2.179-3.119,3.1-1.132,3.532.563,4.166.876,4.323a24.456,24.456,0,0,0,8.04,1.118,25.359,25.359,0,1,0-18.13-43.325,23.322,23.322,0,0,0-7.313,16.535v24.4a41.551,41.551,0,0,1-6.986-11.978c-.726-1.766-2.243-1.438-4.323-.8-.961.249-3.7,1.118-3.133,3.126C5.431,85.022,6.891,87.621,7.289,88.5Z" transform="translate(11.612 -1)" fill="#fff"/>
</svg>
