<svg xmlns="http://www.w3.org/2000/svg" xmlns:xlink="http://www.w3.org/1999/xlink" width="26.221" height="41.02" viewBox="0 0 26.221 41.02">
  <defs>
    <linearGradient id="linear-gradient" y1="0.158" x2="1" y2="0.147" gradientUnits="objectBoundingBox">
      <stop offset="0" stop-color="#b2dbea"/>
      <stop offset="1" stop-color="#b3b3ca"/>
    </linearGradient>
  </defs>
  <path id="Union_13" data-name="Union 13" d="M12145.119,3413.463l-2-2.163v0l-16.889-18.057a1.291,1.291,0,0,1,.273-1.755l2.348-2.487,17.4,17.76,16.938-17.4,2.316,2.451a1.276,1.276,0,0,1,.27,1.729l-16.648,17.8v0l-1.973,2.134a2.265,2.265,0,0,1-.277.249h0a1.12,1.12,0,0,1-.719.272A1.435,1.435,0,0,1,12145.119,3413.463Z" transform="translate(-3388.277 12166.508) rotate(-90)" stroke="rgba(0,0,0,0)" stroke-width="1" fill="url(#linear-gradient)"/>
</svg>
