<svg xmlns="http://www.w3.org/2000/svg" xmlns:xlink="http://www.w3.org/1999/xlink" width="101.575" height="60.572" viewBox="0 0 101.575 60.572">
  <defs>
    <linearGradient id="linear-gradient" y1="0.158" x2="1" y2="0.662" gradientUnits="objectBoundingBox">
      <stop offset="0" stop-color="#008ebc"/>
      <stop offset="1" stop-color="#030753"/>
    </linearGradient>
  </defs>
  <path id="Union_1" data-name="Union 1" d="M12174.062,3447.1l-5.033-5.138v-.006l-42.459-42.882c-.471-.692-1.279-2.2.689-4.169l5.9-5.9,43.746,42.177,42.582-41.319,5.82,5.822c1.936,1.936,1.141,3.422.678,4.106l-41.854,42.267v.007l-4.955,5.068a5.421,5.421,0,0,1-.7.593v0a2.888,2.888,0,0,1-1.807.648A3.7,3.7,0,0,1,12174.062,3447.1Z" transform="translate(-12125.488 -3388.298)" stroke="rgba(0,0,0,0)" stroke-width="1" opacity="0.3" fill="url(#linear-gradient)"/>
</svg>
