<svg id="Groupe_11" data-name="Groupe 11" xmlns="http://www.w3.org/2000/svg" xmlns:xlink="http://www.w3.org/1999/xlink" width="16" height="16" viewBox="0 0 16 16">
  <defs>
    <linearGradient id="linear-gradient" y1="0.5" x2="1" y2="0.5" gradientUnits="objectBoundingBox">
      <stop offset="0" stop-color="#008ebc"/>
      <stop offset="1" stop-color="#030753"/>
    </linearGradient>
  </defs>
  <path id="Tracé_120" data-name="Tracé 120" d="M176.313,188.746c-.052.338-.034.669-.078,1a3.691,3.691,0,0,1-.476,1.619c-.016.024-.027.05-.044.072a.642.642,0,0,1-1.168-.108,4.425,4.425,0,0,1-.435-1.572,6.406,6.406,0,0,0-.812-2.773,4.529,4.529,0,0,0-1.6-1.641,1.224,1.224,0,0,0-.676-.187c-.421.03-.6.326-.747.653a5.671,5.671,0,0,0-.357,1.614,15.754,15.754,0,0,0-.109,1.978,3.082,3.082,0,0,0,.181,1.215,2.8,2.8,0,0,0,1,1.2,5.535,5.535,0,0,0,2.97.926c1.033.064,2.067.078,3.1.073.825,0,1.647-.063,2.468-.129.366-.029.4.106.474.379a.935.935,0,0,1,0,.361c-.039.284-.157.387-.413.405-1.6.111-3.2.107-4.8.085a8.187,8.187,0,0,1-3.033-.514,3.7,3.7,0,0,1-2.354-2.509,5.205,5.205,0,0,1-.164-1.2,17.33,17.33,0,0,1,.19-3.147,4.793,4.793,0,0,1,.607-1.868,1.182,1.182,0,0,1,1.214-.645,2.624,2.624,0,0,1,1.127.562,6.353,6.353,0,0,1,1.955,3.029,10.431,10.431,0,0,1,.29,1.589,4.709,4.709,0,0,0,.256,1.182c.118.288.353.317.533.058a1.749,1.749,0,0,0,.252-.912c.03-.461.013-.925.018-1.388,0-.484.035-.966.087-1.447.015-.139.045-.568.321-.563a.265.265,0,0,1,.257.123,2.077,2.077,0,0,1,.182.61,10.683,10.683,0,0,0,.607,2.256,2.483,2.483,0,0,0,.33.521c.035.043.075.1.139.083.084-.028.028-.1.021-.146a22.256,22.256,0,0,1-.213-4.212,14.542,14.542,0,0,1,.324-2.53,8.2,8.2,0,0,1,1.252-2.943,4.642,4.642,0,0,1,2.126-1.816,2.977,2.977,0,0,1,1.643-.085,2.7,2.7,0,0,1,1.127.458,3.282,3.282,0,0,1,1.242,1.942,3.625,3.625,0,0,1-.168,2.218,2.213,2.213,0,0,1-1.482,1.4c-.6.186-1.221.282-1.808.5a2.874,2.874,0,0,0-1.533,1.123,2.526,2.526,0,0,0-.216,1.708,1.657,1.657,0,0,0,1.332,1.454,8.853,8.853,0,0,1,1.938.409,1.313,1.313,0,0,1,.89,1.135,3.286,3.286,0,0,1-.649,2.412,2.43,2.43,0,0,1-1.633.908,6.561,6.561,0,0,1-.95.074.344.344,0,0,1-.373-.258,1.059,1.059,0,0,1-.051-.357c.021-.454.133-.563.6-.548a2.782,2.782,0,0,0,1.735-.416c.5-.341,1.275-1.264.55-1.733a3.383,3.383,0,0,0-1.191-.358,8.051,8.051,0,0,1-1.538-.323,1.805,1.805,0,0,1-1.078-1.274,5.819,5.819,0,0,1-.167-2.491,3.026,3.026,0,0,1,1.843-2.4,15.072,15.072,0,0,1,1.982-.591,1.869,1.869,0,0,0,1.2-.773,1.9,1.9,0,0,0-.1-2.125,2.741,2.741,0,0,0-3.906-.4,6.33,6.33,0,0,0-1.836,2.735,9.649,9.649,0,0,0-.516,2.88c-.018.476-.034.952-.032,1.429a18.744,18.744,0,0,0,.2,2.355,6.077,6.077,0,0,1,.11,1.123,1.349,1.349,0,0,1-.121.472.437.437,0,0,1-.665.191,1.6,1.6,0,0,1-.551-.589,4.409,4.409,0,0,1-.576-1.437A.539.539,0,0,0,176.313,188.746Z" transform="translate(-169.235 -177.933)" fill="url(#linear-gradient)"/>
</svg>
