<svg xmlns="http://www.w3.org/2000/svg" width="100" height="128.992" viewBox="0 0 100 128.992">
  <path id="pinterest" d="M54.648,1C20.908,1,3,23.636,3,48.35c0,11.461,6.089,25.716,15.9,30.3,1.5.716,2.292.358,2.579-1.074.287-1.075,1.576-6.375,2.149-8.883a2.217,2.217,0,0,0-.573-2.221c-3.152-3.94-5.731-11.175-5.731-17.837,0-17.264,13.037-33.954,35.315-33.954,19.2,0,32.665,13.109,32.665,31.805,0,21.132-10.673,35.817-24.57,35.817-7.665,0-13.4-6.3-11.6-14.112,2.221-9.312,6.519-19.341,6.519-26,0-6.017-3.224-11.032-9.885-11.032-7.88,0-14.183,8.095-14.183,18.983a27.819,27.819,0,0,0,2.364,11.6s-7.736,32.808-9.169,38.9c-2.436,10.315.287,27.149.573,28.582a.805.805,0,0,0,1.5.358c.788-1,10.1-15.043,12.751-25.143.931-3.653,4.871-18.625,4.871-18.625,2.579,4.871,10.029,8.954,17.908,8.954,23.567,0,40.616-21.7,40.616-48.639C102.857,20.341,81.8,1,54.648,1" transform="translate(-3 -1)" fill="#fff"/>
</svg>
