<svg xmlns="http://www.w3.org/2000/svg" width="100" height="81.272" viewBox="0 0 100 81.272">
  <path id="twitter" d="M101,12.667a42.151,42.151,0,0,1-11.772,3.222A20.637,20.637,0,0,0,98.239,4.556,40.73,40.73,0,0,1,85.217,9.5,20.51,20.51,0,0,0,49.728,23.556a20.119,20.119,0,0,0,.539,4.661A58.234,58.234,0,0,1,7.967,6.772a20.542,20.542,0,0,0,6.35,27.394,20.3,20.3,0,0,1-9.3-2.561v.222A20.608,20.608,0,0,0,21.478,52a21.9,21.9,0,0,1-5.406.661,22.682,22.682,0,0,1-3.861-.328A20.562,20.562,0,0,0,31.383,66.606,41.484,41.484,0,0,1,5.9,75.328,35.773,35.773,0,0,1,1,75.05a57.993,57.993,0,0,0,31.456,9.222c37.733,0,58.378-31.272,58.378-58.333,0-.889-.022-1.778-.072-2.667A41.851,41.851,0,0,0,101,12.667" transform="translate(-1 -3)" fill="#fff"/>
</svg>
