<svg id="Groupe_89" data-name="Groupe 89" xmlns="http://www.w3.org/2000/svg" xmlns:xlink="http://www.w3.org/1999/xlink" width="150" height="150" viewBox="0 0 150 150">
  <defs>
    <linearGradient id="linear-gradient" y1="0.5" x2="0.668" y2="0.5" gradientUnits="objectBoundingBox">
      <stop offset="0" stop-color="#b2dbea"/>
      <stop offset="1" stop-color="#b3b3ca"/>
    </linearGradient>
  </defs>
  <path id="Tracé_120" data-name="Tracé 120" d="M235.59,279.306c-.488,3.166-.322,6.273-.732,9.358-.7,5.294-1.411,10.563-4.462,15.18-.147.222-.254.471-.417.679-3.51,4.469-8.256,4.021-10.949-1.012-2.471-4.617-3.435-9.634-4.074-14.734-1.137-9.066-2.509-18.072-7.612-26-3.937-6.115-8.383-11.8-15-15.382a11.477,11.477,0,0,0-6.334-1.756c-3.944.28-5.649,3.056-7,6.119-2.124,4.818-2.7,9.971-3.352,15.135a147.7,147.7,0,0,0-1.024,18.548c0,3.828.151,7.695,1.7,11.392a26.275,26.275,0,0,0,9.341,11.293c8.279,5.918,17.808,8.053,27.84,8.679,9.689.6,19.381.733,29.083.683,7.733-.039,15.442-.593,23.137-1.207,3.434-.274,3.753,1,4.443,3.553a8.768,8.768,0,0,1,.019,3.384c-.369,2.661-1.474,3.633-3.875,3.8-14.974,1.045-29.969,1-44.964.8-9.729-.13-19.355-1.1-28.436-4.815-10.979-4.494-18.914-11.847-22.068-23.521a48.792,48.792,0,0,1-1.54-11.246,162.466,162.466,0,0,1,1.785-29.5c.919-6.085,2.325-12.125,5.692-17.515,2.794-4.473,7.227-7.059,11.379-6.049a24.6,24.6,0,0,1,10.561,5.27,59.562,59.562,0,0,1,18.333,28.4,97.785,97.785,0,0,1,2.717,14.893c.5,3.748.941,7.534,2.4,11.081,1.109,2.7,3.311,2.971,5,.539,1.767-2.544,2.174-5.6,2.364-8.546.279-4.323.126-8.674.17-13.013.046-4.534.332-9.058.815-13.564.139-1.3.417-5.322,3.013-5.28a2.487,2.487,0,0,1,2.412,1.15,19.463,19.463,0,0,1,1.7,5.721c1.554,7.139,2.59,14.41,5.693,21.148a23.263,23.263,0,0,0,3.093,4.884c.327.4.7.982,1.3.782.785-.26.261-.942.194-1.37a208.64,208.64,0,0,1-2-39.489,136.317,136.317,0,0,1,3.038-23.723,76.827,76.827,0,0,1,11.737-27.593c5.037-7.392,11.276-13.635,19.929-17.029,5.036-1.975,10.234-1.717,15.4-.8a25.319,25.319,0,0,1,10.569,4.3c6.314,4.568,9.795,10.914,11.647,18.2a33.983,33.983,0,0,1-1.572,20.795,20.747,20.747,0,0,1-13.9,13.132c-5.608,1.745-11.442,2.642-16.953,4.684-5.816,2.154-11.023,5.174-14.369,10.524-3.5,4.407-2.558,13.889-2.025,16.009,1.171,6.926,5.72,12.635,12.492,13.633,7.144,1.136,12.306,1.546,18.171,3.831a12.307,12.307,0,0,1,8.343,10.637,30.808,30.808,0,0,1-6.085,22.61c-3.795,5-9.138,7.533-15.306,8.513a61.5,61.5,0,0,1-8.906.692,3.224,3.224,0,0,1-3.5-2.416,9.924,9.924,0,0,1-.48-3.343c.2-4.254,1.244-5.277,5.6-5.14,5.816.185,11.319-.514,16.266-3.9,4.67-3.2,11.957-11.852,5.158-16.25-3.406-2.13-7.326-2.6-11.17-3.355-4.817-.949-9.79-1.135-14.416-3.025-5.521-2.256-8.6-6.527-10.1-11.948a54.55,54.55,0,0,1-1.569-23.357c1.677-10.4,7.357-18.065,17.278-22.53,5.953-2.679,12.383-3.713,18.583-5.539,4.475-1.318,8.777-3.005,11.252-7.248,3.969-6.807,3.21-13.372-.966-19.926-6.467-10.151-25.042-13.809-36.616-3.739a59.343,59.343,0,0,0-17.217,25.637,90.459,90.459,0,0,0-4.837,27c-.168,4.467-.318,8.928-.3,13.4a175.753,175.753,0,0,0,1.83,22.081c.454,3.482,1.231,6.961,1.033,10.53a12.648,12.648,0,0,1-1.134,4.423c-1.146,2.6-3.73,3.223-6.234,1.793a14.97,14.97,0,0,1-5.163-5.525,41.336,41.336,0,0,1-5.4-13.47A5.052,5.052,0,0,0,235.59,279.306Z" transform="translate(-169.235 -177.933)" fill="url(#linear-gradient)"/>
</svg>
