<svg xmlns="http://www.w3.org/2000/svg" xmlns:xlink="http://www.w3.org/1999/xlink" width="200" height="200" viewBox="0 0 200 200">
  <defs>
    <linearGradient id="linear-gradient" y1="0.5" x2="0.668" y2="0.5" gradientUnits="objectBoundingBox">
      <stop offset="0" stop-color="#008ebc"/>
      <stop offset="1" stop-color="#030753"/>
    </linearGradient>
  </defs>
  <g id="Groupe_89" data-name="Groupe 89" transform="translate(0 0)">
    <path id="Tracé_120" data-name="Tracé 120" d="M257.708,313.1c-.651,4.222-.429,8.364-.976,12.477-.937,7.058-1.882,14.084-5.95,20.24-.2.3-.339.628-.556.9-4.681,5.959-11.008,5.362-14.6-1.349-3.294-6.156-4.581-12.846-5.432-19.645-1.516-12.088-3.345-24.1-10.15-34.666-5.249-8.154-11.178-15.729-20-20.509-2.59-1.4-5.324-2.563-8.445-2.342-5.258.374-7.533,4.074-9.332,8.158-2.832,6.425-3.6,13.294-4.469,20.18a196.92,196.92,0,0,0-1.366,24.73c0,5.1.2,10.26,2.262,15.189a35.033,35.033,0,0,0,12.455,15.057c11.039,7.891,23.744,10.737,37.121,11.571,12.918.806,25.842.977,38.777.911,10.311-.052,20.59-.79,30.849-1.61,4.579-.365,5,1.331,5.924,4.738a11.692,11.692,0,0,1,.025,4.512c-.492,3.548-1.965,4.843-5.166,5.067-19.965,1.393-39.958,1.334-59.952,1.068-12.971-.173-25.807-1.465-37.915-6.42C186.18,365.37,175.6,355.565,171.4,340a65.055,65.055,0,0,1-2.053-15,216.62,216.62,0,0,1,2.379-39.339c1.226-8.113,3.1-16.167,7.589-23.353,3.726-5.964,9.636-9.412,15.173-8.065a32.8,32.8,0,0,1,14.082,7.027,79.416,79.416,0,0,1,24.444,37.862c1.92,6.469,2.726,13.179,3.623,19.858.671,5,1.255,10.045,3.2,14.774,1.479,3.6,4.414,3.961,6.668.719,2.357-3.392,2.9-7.461,3.152-11.394.372-5.764.167-11.565.227-17.351.061-6.045.443-12.078,1.086-18.086.186-1.733.556-7.1,4.018-7.04,1.363.022,2.506.289,3.216,1.534,1.352,2.37,1.708,5.035,2.272,7.627,2.072,9.519,3.453,19.214,7.591,28.2a31.016,31.016,0,0,0,4.124,6.512c.436.538.934,1.309,1.737,1.043,1.046-.346.348-1.256.259-1.827-2.734-17.462-3.268-35.037-2.667-52.652a181.758,181.758,0,0,1,4.05-31.631,102.435,102.435,0,0,1,15.65-36.791c6.716-9.856,15.035-18.181,26.572-22.706,6.714-2.633,13.645-2.289,20.539-1.063a33.759,33.759,0,0,1,14.093,5.727c8.419,6.09,13.059,14.552,15.529,24.272,2.4,9.428,1.32,18.742-2.1,27.727-3.289,8.652-9.265,14.628-18.53,17.51-7.477,2.327-15.256,3.523-22.6,6.245-7.754,2.871-14.7,6.9-19.159,14.032-4.67,5.876-3.41,18.518-2.7,21.345,1.561,9.235,7.627,16.846,16.656,18.177,9.525,1.515,16.408,2.062,24.228,5.107,6.716,2.614,10.4,7.567,11.124,14.182a41.078,41.078,0,0,1-8.114,30.146c-5.06,6.667-12.184,10.044-20.408,11.35a81.993,81.993,0,0,1-11.874.923c-2.5.032-3.994-1.063-4.665-3.221a13.233,13.233,0,0,1-.64-4.458c.266-5.672,1.659-7.037,7.465-6.853,7.754.247,15.092-.686,21.688-5.2,6.227-4.26,15.943-15.8,6.877-21.667-4.542-2.84-9.769-3.464-14.893-4.473-6.422-1.265-13.054-1.514-19.222-4.034-7.361-3.008-11.467-8.7-13.47-15.931a72.732,72.732,0,0,1-2.091-31.143c2.236-13.863,9.81-24.087,23.038-30.04,7.938-3.572,16.511-4.95,24.777-7.385,5.967-1.757,11.7-4.007,15-9.665,5.292-9.076,4.28-17.829-1.288-26.569-8.622-13.535-33.39-18.413-48.821-4.986a79.124,79.124,0,0,0-22.956,34.182,120.611,120.611,0,0,0-6.449,36c-.224,5.956-.424,11.9-.4,17.862a234.335,234.335,0,0,0,2.44,29.441c.605,4.643,1.641,9.281,1.378,14.04a16.865,16.865,0,0,1-1.512,5.9c-1.528,3.461-4.973,4.3-8.313,2.391-3.1-1.769-5.1-4.48-6.884-7.367a55.116,55.116,0,0,1-7.2-17.96A6.738,6.738,0,0,0,257.708,313.1Z" transform="translate(-169.235 -177.933)" fill="url(#linear-gradient)"/>
  </g>
</svg>
