<svg xmlns="http://www.w3.org/2000/svg" xmlns:xlink="http://www.w3.org/1999/xlink" width="605.337" height="424.895" viewBox="0 0 605.337 424.895">
  <defs>
    <linearGradient id="linear-gradient" x1="0.103" y1="0.736" x2="0.794" y2="0.359" gradientUnits="objectBoundingBox">
      <stop offset="0" stop-color="#030753"/>
      <stop offset="1" stop-color="#008ebc"/>
    </linearGradient>
  </defs>
  <path id="Soustraction_5" data-name="Soustraction 5" d="M604,423.793,307.316,411.85c8.629-13.381,12.078-28.64,10.252-45.357-1.219-11.16-7.621-19.292-18.513-23.516a94.687,94.687,0,0,0-15.306-4.451c-5.106-1.064-10.448-1.846-16.1-2.675h-.007l-.027,0c-2.833-.415-5.763-.845-8.876-1.338a29.951,29.951,0,0,1-10.3-3.487,31.476,31.476,0,0,1-8.215-6.668,37.071,37.071,0,0,1-5.885-9.125,43.5,43.5,0,0,1-3.314-10.859,65.219,65.219,0,0,1-1.111-15.8,51.723,51.723,0,0,1,1.457-10.611,23.87,23.87,0,0,1,4.147-8.981A48.412,48.412,0,0,1,249.4,254.695a80.535,80.535,0,0,1,18-8.983,193.968,193.968,0,0,1,21.581-6.115c5.286-1.279,10.751-2.6,16.036-4.24a52.562,52.562,0,0,0,10.553-4.535,44.4,44.4,0,0,0,8.595-6.394,44.891,44.891,0,0,0,6.73-8.188,53.8,53.8,0,0,0,4.959-9.917c6.05-15.856,7.224-31.324,3.488-45.973-4.545-17.823-13-30.987-25.843-40.245a51.581,51.581,0,0,0-11.2-6.087,63.526,63.526,0,0,0-12.255-3.409,89.275,89.275,0,0,0-15.562-1.54,50.267,50.267,0,0,0-18.617,3.3,81.38,81.38,0,0,0-13.438,6.75,87.8,87.8,0,0,0-11.681,8.76,118.348,118.348,0,0,0-19.1,22.139A169.847,169.847,0,0,0,195.62,179.2a173.437,173.437,0,0,0-10.022,31.82,298.813,298.813,0,0,0-6.741,52.447c-1.117,32.628.335,61.185,4.439,87.3a4.407,4.407,0,0,0,.228.757,2.243,2.243,0,0,1,.19,1.642,1.334,1.334,0,0,1-.848.63,1.708,1.708,0,0,1-.534.09c-.917,0-1.568-.824-2.143-1.551l-.009-.011c-.069-.088-.138-.175-.206-.258a51.108,51.108,0,0,1-6.863-10.8,111.447,111.447,0,0,1-6.428-18.34c-1.653-6.24-2.962-12.68-4.227-18.908l0-.011c-.633-3.115-1.287-6.336-1.977-9.493-.162-.745-.317-1.506-.467-2.242l0-.011c-.715-3.515-1.453-7.149-3.312-10.395-1.246-2.178-3.308-2.509-5.351-2.543h-.09c-2.315,0-4.056,1.477-5.174,4.391a27.225,27.225,0,0,0-1.374,6.821l-.013.123c-.012.121-.024.234-.035.339-1.1,10.262-1.711,20.351-1.808,29.987-.031,3.04-.019,6.1-.007,9.055v.007c.026,6.469.053,13.158-.371,19.707a58.1,58.1,0,0,1-1.31,9.783,26.353,26.353,0,0,1-3.935,9.11c-1.658,2.376-3.632,3.685-5.557,3.685a4.657,4.657,0,0,1-3.089-1.231,9.532,9.532,0,0,1-2.45-3.647c-3.029-7.346-4.087-15.266-5.111-22.926l-.031-.23q-.09-.671-.18-1.341-.173-1.285-.345-2.57c-1.345-10.057-2.736-20.457-5.685-30.356A132.145,132.145,0,0,0,74.1,247.26,50.3,50.3,0,0,0,63.069,240a61.62,61.62,0,0,0-12.4-4.391,17.207,17.207,0,0,0-4.048-.482,19.594,19.594,0,0,0-7.87,1.722,26.8,26.8,0,0,0-7.277,4.814L0,85.927,436.717,0,604,423.793ZM275.978,410.588,63.885,402.05,35.849,263.321a14.774,14.774,0,0,1,10.029-4.565c.425-.03.856-.045,1.281-.045a20.559,20.559,0,0,1,6.655,1.163,39.461,39.461,0,0,1,6.118,2.765A72.574,72.574,0,0,1,78.8,277.544a137.247,137.247,0,0,1,14.41,19.1A83.16,83.16,0,0,1,100.27,310.2a106.763,106.763,0,0,1,4.684,14.239c2.543,9.871,3.936,20.077,5.144,29.684a132.665,132.665,0,0,0,3,16.687A69.7,69.7,0,0,0,119.14,386.7a19.379,19.379,0,0,0,5.673,6.768,11.582,11.582,0,0,0,6.8,2.275,12.278,12.278,0,0,0,6.08-1.692,19.957,19.957,0,0,0,5.742-5.113,6.768,6.768,0,0,0,.555-.878l0-.006c.116-.205.235-.418.368-.617,6.8-10.248,8.374-22.1,9.9-33.56.427-3.2.575-6.48.718-9.65v0a102,102,0,0,1,.905-11.035c.11.236.238.472.361.7l.006.01a5.962,5.962,0,0,1,.664,1.561,91.575,91.575,0,0,0,11.979,29.779c2.831,4.571,6.178,9.214,11.456,12.215a11.8,11.8,0,0,0,5.759,1.657c3.549,0,6.492-2.049,8.074-5.62a27.84,27.84,0,0,0,2.517-9.778c.33-5.944-.58-11.859-1.46-17.579l-.006-.043c-.285-1.855-.58-3.772-.826-5.657-.951-7.278-2.028-15.863-2.8-24.353-.819-8.965-1.23-16.967-1.256-24.463-.036-10.005.312-20.118.671-29.617.834-22.151,4.344-41.674,10.733-59.686a146.512,146.512,0,0,1,6.735-15.976,132.507,132.507,0,0,1,8.531-14.776,127.871,127.871,0,0,1,10.449-13.569,132.474,132.474,0,0,1,12.489-12.356A52.8,52.8,0,0,1,257.4,135.609a58.6,58.6,0,0,1,19.178-3.156,60.958,60.958,0,0,1,26.049,5.769c8.036,3.824,14.458,9.246,18.57,15.678a55.872,55.872,0,0,1,5.482,10.881,39.578,39.578,0,0,1,2.366,10.937,35.551,35.551,0,0,1-1.022,11.042,43.263,43.263,0,0,1-4.683,11.195,28.481,28.481,0,0,1-10.819,10.437,66.174,66.174,0,0,1-14.148,5.587c-4.473,1.312-9.072,2.458-13.52,3.566-9.242,2.3-18.8,4.681-27.713,8.679-21.662,9.713-34.56,26.472-38.338,49.81-2.654,16.413-1.483,33.787,3.481,51.637a49.21,49.21,0,0,0,3.186,8.482,38.437,38.437,0,0,0,4.678,7.349,34.734,34.734,0,0,0,6.35,6.038,38.167,38.167,0,0,0,8.2,4.547c7.092,2.887,14.677,3.994,22.012,5.065,3.283.479,6.674.975,9.976,1.622,1.261.247,2.536.483,3.769.71,3.586.662,7.29,1.346,10.826,2.352a39.408,39.408,0,0,1,10.191,4.355c4.021,2.592,6.088,6.028,6.142,10.214.07,5.4-3.213,10.884-5.979,14.538a52.782,52.782,0,0,1-11.608,11.174A46.6,46.6,0,0,1,275.978,410.588Z" transform="translate(0.59 0.571)" stroke="rgba(0,0,0,0)" stroke-width="1" opacity="0.3" fill="url(#linear-gradient)"/>
</svg>
