<svg xmlns="http://www.w3.org/2000/svg" xmlns:xlink="http://www.w3.org/1999/xlink" width="855.853" height="602.862" viewBox="0 0 855.853 602.862">
  <defs>
    <linearGradient id="linear-gradient" x1="0.103" y1="0.736" x2="0.794" y2="0.359" gradientUnits="objectBoundingBox">
      <stop offset="0" stop-color="#030753"/>
      <stop offset="1" stop-color="#008ebc"/>
    </linearGradient>
  </defs>
  <path id="Soustraction_5" data-name="Soustraction 5" d="M854.518,601.76,434.779,584.8c12.208-19,17.088-40.668,14.5-64.4C447.557,504.551,438.5,493,423.092,487.006a133.59,133.59,0,0,0-21.655-6.32c-7.223-1.51-14.781-2.621-22.783-3.8l-.01,0-.038-.005c-4.008-.59-8.153-1.2-12.558-1.9a42.271,42.271,0,0,1-14.578-4.952,44.563,44.563,0,0,1-11.622-9.469,52.664,52.664,0,0,1-8.326-12.958,61.934,61.934,0,0,1-4.689-15.419c-.834-3.321-2-12.349-1.571-22.434a73.7,73.7,0,0,1,2.062-15.066,33.951,33.951,0,0,1,5.867-12.753,68.63,68.63,0,0,1,19.646-20.28A113.777,113.777,0,0,1,378.3,348.895c9.951-3.686,20.414-6.227,30.532-8.683,7.479-1.816,15.21-3.693,22.687-6.02a74.22,74.22,0,0,0,14.93-6.439,62.834,62.834,0,0,0,12.159-9.079,63.7,63.7,0,0,0,9.521-11.626,76.514,76.514,0,0,0,7.015-14.081c8.56-22.515,10.22-44.478,4.935-65.279-6.43-25.308-18.389-44-36.562-57.146a72.894,72.894,0,0,0-15.84-8.643,89.619,89.619,0,0,0-17.338-4.84,125.857,125.857,0,0,0-22.017-2.187,70.885,70.885,0,0,0-26.339,4.689,114.97,114.97,0,0,0-19.012,9.584,124.259,124.259,0,0,0-16.526,12.438,167.873,167.873,0,0,0-27.023,31.436,241.44,241.44,0,0,0-22.665,41.437,246.925,246.925,0,0,0-14.179,45.182,425.763,425.763,0,0,0-9.537,74.472c-1.58,46.33.474,86.879,6.279,123.964a6.272,6.272,0,0,0,.322,1.075,3.2,3.2,0,0,1,.269,2.331,1.888,1.888,0,0,1-1.2.895,2.409,2.409,0,0,1-.755.128c-1.3,0-2.219-1.17-3.032-2.2l-.013-.016c-.1-.125-.2-.248-.291-.366a72.608,72.608,0,0,1-9.709-15.331,158.634,158.634,0,0,1-9.094-26.042c-2.339-8.861-4.19-18-5.98-26.848l0-.016c-.9-4.423-1.821-9-2.8-13.479-.23-1.057-.449-2.138-.661-3.183l0-.015c-1.011-4.991-2.056-10.151-4.685-14.76-1.763-3.092-4.68-3.563-7.571-3.611h-.128c-3.275,0-5.738,2.1-7.321,6.235a38.783,38.783,0,0,0-1.944,9.686l-.018.174c-.018.171-.034.332-.05.481-1.559,14.571-2.42,28.9-2.558,42.58-.044,4.317-.027,8.658-.01,12.857v.01c.037,9.185.075,18.683-.525,27.983a82.782,82.782,0,0,1-1.853,13.891,37.49,37.49,0,0,1-5.568,12.935c-2.346,3.374-5.138,5.232-7.862,5.233a6.575,6.575,0,0,1-4.37-1.748,13.538,13.538,0,0,1-3.466-5.178c-4.285-10.431-5.783-21.677-7.231-32.553l-.044-.326q-.127-.952-.254-1.9-.245-1.824-.488-3.649c-1.9-14.28-3.871-29.047-8.043-43.1-10.341-34.831-29.7-64.823-57.55-89.142a71.14,71.14,0,0,0-15.609-10.31,86.969,86.969,0,0,0-17.545-6.235,24.262,24.262,0,0,0-5.727-.684,27.635,27.635,0,0,0-11.135,2.445,37.9,37.9,0,0,0-10.3,6.835L0,122.011,617.852,0,854.518,601.76ZM390.444,583.01,90.382,570.886,50.718,373.9a20.868,20.868,0,0,1,14.189-6.482c.6-.043,1.211-.064,1.812-.064A28.99,28.99,0,0,1,76.134,369a55.733,55.733,0,0,1,8.656,3.926,102.735,102.735,0,0,1,26.69,21.165c6.6,7.152,13.08,15.77,20.387,27.122a118.24,118.24,0,0,1,9.991,19.25,151.987,151.987,0,0,1,6.627,20.219c3.6,14.017,5.568,28.508,7.278,42.149A189,189,0,0,0,160,526.528a99.194,99.194,0,0,0,8.551,22.558,27.492,27.492,0,0,0,8.026,9.609,16.346,16.346,0,0,0,9.62,3.231,17.323,17.323,0,0,0,8.6-2.4,28.267,28.267,0,0,0,8.124-7.261,9.614,9.614,0,0,0,.785-1.246l0-.008c.164-.291.333-.593.52-.876,9.615-14.551,11.847-31.379,14.007-47.653.6-4.548.814-9.2,1.016-13.7v-.006A145.349,145.349,0,0,1,220.54,473.1c.156.335.336.671.511,1l.008.014A8.482,8.482,0,0,1,222,476.33a130.3,130.3,0,0,0,16.947,42.284c4,6.49,8.74,13.083,16.207,17.344a16.643,16.643,0,0,0,8.147,2.352c5.021,0,9.185-2.909,11.423-7.981a39.647,39.647,0,0,0,3.561-13.884c.466-8.441-.821-16.839-2.066-24.961l-.009-.061c-.4-2.633-.82-5.356-1.169-8.033-1.346-10.334-2.87-22.525-3.967-34.58-1.159-12.73-1.741-24.092-1.778-34.736-.05-14.207.441-28.566.949-42.055,1.18-31.453,6.146-59.175,15.184-84.75a208.441,208.441,0,0,1,9.528-22.685A188.321,188.321,0,0,1,307.026,243.6a181.493,181.493,0,0,1,14.782-19.268,187.751,187.751,0,0,1,17.669-17.545,74.626,74.626,0,0,1,24.685-14.234,82.639,82.639,0,0,1,27.132-4.481,85.978,85.978,0,0,1,36.853,8.192c11.369,5.43,20.454,13.128,26.273,22.261a79.453,79.453,0,0,1,7.756,15.45,56.375,56.375,0,0,1,3.348,15.529,50.656,50.656,0,0,1-1.446,15.679,61.552,61.552,0,0,1-6.626,15.9,40.36,40.36,0,0,1-15.306,14.82c-6.416,3.686-13.719,6.079-20.016,7.933C415.8,305.7,409.294,307.325,403,308.9c-13.076,3.269-26.593,6.647-39.207,12.324-30.646,13.792-48.895,37.589-54.239,70.727-3.755,23.306-2.1,47.975,4.925,73.322a70.031,70.031,0,0,0,4.508,12.044,54.6,54.6,0,0,0,6.619,10.436,49.219,49.219,0,0,0,8.984,8.573,53.94,53.94,0,0,0,11.6,6.456c10.034,4.1,20.764,5.672,31.141,7.192,4.644.681,9.442,1.384,14.114,2.3,1.784.351,3.588.685,5.332,1.008,5.073.94,10.314,1.911,15.316,3.339a55.647,55.647,0,0,1,14.418,6.183c5.689,3.68,8.613,8.56,8.69,14.5.1,7.662-4.545,15.455-8.459,20.643a74.793,74.793,0,0,1-16.423,15.866A65.822,65.822,0,0,1,390.444,583.01Z" transform="translate(0.59 0.571)" stroke="rgba(0,0,0,0)" stroke-width="1" opacity="0.3" fill="url(#linear-gradient)"/>
</svg>
