<?xml version="1.0" encoding="utf-8"?>
<!-- Generator: Adobe Illustrator 23.0.0, SVG Export Plug-In . SVG Version: 6.00 Build 0)  -->
<svg version="1.1" id="Calque_1" xmlns="http://www.w3.org/2000/svg" xmlns:xlink="http://www.w3.org/1999/xlink" x="0px" y="0px"
	 viewBox="0 0 288 228" style="enable-background:new 0 0 288 228;" xml:space="preserve">
<style type="text/css">
	.st0{opacity:0.3;fill:#929292;enable-background:new    ;}
	.st1{fill:#DEDEDE;}
	.st2{opacity:0.3;fill:url(#Tracé_118-8_1_);enable-background:new    ;}
	.st3{opacity:0.3;fill:url(#Tracé_118-9_1_);enable-background:new    ;}
	.st4{opacity:0.3;fill:url(#Tracé_118-10_1_);enable-background:new    ;}
	.st5{opacity:0.3;fill:url(#Tracé_118-11_1_);enable-background:new    ;}
	.st6{opacity:0.3;fill:url(#Tracé_118-12_1_);enable-background:new    ;}
	.st7{opacity:0.3;fill:url(#Tracé_118-13_1_);enable-background:new    ;}
	.st8{opacity:0.3;fill:url(#Tracé_118-14_1_);enable-background:new    ;}
</style>
<g id="Groupe_419" transform="translate(-1145.734 -551.912)">
	<g id="Groupe_412" transform="translate(1157.927 554.351)">
		<path id="Tracé_118" class="st0" d="M74.8,184.4l-30.1-61.2l-44.4,22L18.5,226L74.8,184.4z"/>
		<path id="Tracé_118-2" class="st0" d="M155.3,0.3L58.2,101.5l73.8,70.3l143.3-92L155.3,0.3z"/>
		<path id="Tracé_118-3" class="st0" d="M124.4,194l14,31.3l22.7-10.3l-7.7-40.9L124.4,194z"/>
		<path id="Tracé_118-4" class="st0" d="M90,171.4l9.8,5.2l3.7-7.1l-10.1-8.9L90,171.4z"/>
		<path id="Tracé_118-5" class="st0" d="M269.8,53.9l-9.9-5l-3.6,7.2l10.2,8.7L269.8,53.9z"/>
		<path id="Tracé_118-6" class="st0" d="M29.3,89l-11,0.6l0.5,8l13.2,2.4L29.3,89z"/>
	</g>
	<path id="Tracé_118-7" class="st1" d="M1236.5,712.2l-2.1,6.2l4.5,1.5l4.3-6.7L1236.5,712.2z"/>
	<g id="Groupe_418" transform="translate(1145.734 551.912)">
		<g id="Groupe_483">
			
				<linearGradient id="Tracé_118-8_1_" gradientUnits="userSpaceOnUse" x1="230.4564" y1="265.9328" x2="230.4564" y2="264.9328" gradientTransform="matrix(6.291133e-15 102.742 74.436 -4.557891e-15 -19720.1777 -23504.1055)">
				<stop  offset="0" style="stop-color:#008EBC"/>
				<stop  offset="1" style="stop-color:#030753"/>
			</linearGradient>
			<path id="Tracé_118-8" class="st2" d="M74.8,183.2l-30.1-61.2l-44.4,22l18.2,80.7L74.8,183.2z"/>
			
				<linearGradient id="Tracé_118-9_1_" gradientUnits="userSpaceOnUse" x1="228.1527" y1="264.7784" x2="228.1527" y2="263.7784" gradientTransform="matrix(198.7206 -72.3284 -52.4009 -143.9703 -31333.6914 54629.3555)">
				<stop  offset="0" style="stop-color:#008EBC"/>
				<stop  offset="1" style="stop-color:#030753"/>
			</linearGradient>
			<path id="Tracé_118-9" class="st3" d="M149.2,0.3L52.1,101.5l73.8,70.3l143.3-92L149.2,0.3z"/>
			
				<linearGradient id="Tracé_118-10_1_" gradientUnits="userSpaceOnUse" x1="224.6079" y1="265.9461" x2="224.6079" y2="264.9461" gradientTransform="matrix(1.8028 -51.6255 -37.4022 -1.3061 9672.3779 12141.791)">
				<stop  offset="0" style="stop-color:#008EBC"/>
				<stop  offset="1" style="stop-color:#030753"/>
			</linearGradient>
			<path id="Tracé_118-10" class="st4" d="M130.5,194l14,31.3l22.7-10.3l-7.7-40.9L130.5,194z"/>
			
				<linearGradient id="Tracé_118-11_1_" gradientUnits="userSpaceOnUse" x1="218.9251" y1="276.1205" x2="218.9251" y2="275.1205" gradientTransform="matrix(-9.8031 -13.4876 -9.7687 7.1001 4942.9438 1167.4655)">
				<stop  offset="0" style="stop-color:#008EBC"/>
				<stop  offset="1" style="stop-color:#030753"/>
			</linearGradient>
			<path id="Tracé_118-11" class="st5" d="M98.5,173.9l9.8,5.2l3.7-7.1l-10.1-8.9L98.5,173.9z"/>
			
				<linearGradient id="Tracé_118-12_1_" gradientUnits="userSpaceOnUse" x1="237.948" y1="255.6515" x2="237.948" y2="254.6515" gradientTransform="matrix(10.0335 13.3149 9.6435 -7.2669 -4575.4902 -1255.4042)">
				<stop  offset="0" style="stop-color:#008EBC"/>
				<stop  offset="1" style="stop-color:#030753"/>
			</linearGradient>
			<path id="Tracé_118-12" class="st6" d="M278.3,56.3l-9.9-5l-3.6,7.2l10.2,8.7L278.3,56.3z"/>
			
				<linearGradient id="Tracé_118-13_1_" gradientUnits="userSpaceOnUse" x1="232.9346" y1="250.5155" x2="232.9346" y2="249.5155" gradientTransform="matrix(15.3467 6.5143 4.7181 -11.1151 -4720.3618 1360.3782)">
				<stop  offset="0" style="stop-color:#008EBC"/>
				<stop  offset="1" style="stop-color:#030753"/>
			</linearGradient>
			<path id="Tracé_118-13" class="st7" d="M37.8,93.9l-11,0.6l0.5,8l13.2,2.4L37.8,93.9z"/>
			
				<linearGradient id="Tracé_118-14_1_" gradientUnits="userSpaceOnUse" x1="213.7865" y1="246.6677" x2="213.7865" y2="245.6677" gradientTransform="matrix(7.0004 -7.0004 -5.0692 -5.0692 -158.516 2909.2126)">
				<stop  offset="0" style="stop-color:#008EBC"/>
				<stop  offset="1" style="stop-color:#030753"/>
			</linearGradient>
			<path id="Tracé_118-14" class="st8" d="M88.3,161.5l-2.1,6.2l4.5,1.5l4.3-6.7L88.3,161.5z"/>
		</g>
	</g>
</g>
</svg>
