<?xml version="1.0" encoding="utf-8"?>
<!-- Generator: Adobe Illustrator 23.0.0, SVG Export Plug-In . SVG Version: 6.00 Build 0)  -->
<svg version="1.1" id="Calque_1" xmlns="http://www.w3.org/2000/svg" xmlns:xlink="http://www.w3.org/1999/xlink" x="0px" y="0px"
	 viewBox="0 0 229 288" style="enable-background:new 0 0 229 288;" xml:space="preserve">
<style type="text/css">
	.st0{opacity:0.7;}
	.st1{opacity:0.3;fill:#929292;enable-background:new    ;}
	.st2{fill:#DEDEDE;}
	.st3{opacity:0.3;fill:url(#Tracé_118-8_1_);enable-background:new    ;}
	.st4{opacity:0.3;fill:url(#Tracé_118-9_1_);enable-background:new    ;}
	.st5{opacity:0.3;fill:url(#Tracé_118-10_1_);enable-background:new    ;}
	.st6{opacity:0.3;fill:url(#Tracé_118-11_1_);enable-background:new    ;}
	.st7{opacity:0.3;fill:url(#Tracé_118-12_1_);enable-background:new    ;}
	.st8{opacity:0.3;fill:url(#Tracé_118-13_1_);enable-background:new    ;}
	.st9{opacity:0.3;fill:url(#Tracé_118-14_1_);enable-background:new    ;}
</style>
<g id="Groupe_518" transform="translate(-9371.283 -3077)">
	<g id="Groupe_443" transform="translate(8819.371 4522.733) rotate(-90)" class="st0">
		<g id="Groupe_412" transform="translate(1157.927 554.351)">
			<path id="Tracé_118" class="st1" d="M86.4,184.8l-30.1-61.2l-44.4,22l18.2,80.7L86.4,184.8z"/>
			<path id="Tracé_118-2" class="st1" d="M166.9,0.6L69.8,101.8l73.8,70.3l143.3-92L166.9,0.6z"/>
			<path id="Tracé_118-3" class="st1" d="M136,194.3l14,31.3l22.7-10.3l-7.7-40.9L136,194.3z"/>
			<path id="Tracé_118-4" class="st1" d="M101.6,171.8l9.8,5.2l3.7-7.1l-10.1-8.9L101.6,171.8z"/>
			<path id="Tracé_118-5" class="st1" d="M281.3,54.2l-9.9-5l-3.6,7.2l10.2,8.7L281.3,54.2z"/>
			<path id="Tracé_118-6" class="st1" d="M40.9,89.3l-11,0.6l0.5,8l13.2,2.4L40.9,89.3z"/>
		</g>
		<path id="Tracé_118-7" class="st2" d="M1248.1,712.5l-2.1,6.2l4.5,1.5l4.3-6.7L1248.1,712.5z"/>
		<g id="Groupe_418" transform="translate(1145.734 551.912)">
			
				<linearGradient id="Tracé_118-8_1_" gradientUnits="userSpaceOnUse" x1="36.9276" y1="228.1692" x2="36.9276" y2="229.1692" gradientTransform="matrix(-74.436 0 0 102.742 2835.123 -23268.8125)">
				<stop  offset="0" style="stop-color:#008EBC"/>
				<stop  offset="1" style="stop-color:#030753"/>
			</linearGradient>
			<path id="Tracé_118-8" class="st3" d="M86.4,183.5l-30.1-61.2l-44.4,22l18.2,80.7L86.4,183.5z"/>
			
				<linearGradient id="Tracé_118-9_1_" gradientUnits="userSpaceOnUse" x1="33.3037" y1="227.5864" x2="33.3037" y2="228.5864" gradientTransform="matrix(52.4009 143.9703 198.7206 -72.3284 -46829.3477 11673.7354)">
				<stop  offset="0" style="stop-color:#008EBC"/>
				<stop  offset="1" style="stop-color:#030753"/>
			</linearGradient>
			<path id="Tracé_118-9" class="st4" d="M160.8,0.6L63.7,101.8l73.8,70.3l143.3-92L160.8,0.6z"/>
			
				<linearGradient id="Tracé_118-10_1_" gradientUnits="userSpaceOnUse" x1="28.1458" y1="229.0106" x2="28.1458" y2="230.0106" gradientTransform="matrix(37.4022 1.3061 1.8028 -51.6255 -1323.6592 11985.2715)">
				<stop  offset="0" style="stop-color:#008EBC"/>
				<stop  offset="1" style="stop-color:#030753"/>
			</linearGradient>
			<path id="Tracé_118-10" class="st5" d="M142.1,194.3l14,31.3l22.7-10.3l-7.7-40.9L142.1,194.3z"/>
			
				<linearGradient id="Tracé_118-11_1_" gradientUnits="userSpaceOnUse" x1="21.0519" y1="237.8364" x2="21.0519" y2="238.8364" gradientTransform="matrix(9.7687 -7.1001 -9.8031 -13.4876 2236.936 3532.7964)">
				<stop  offset="0" style="stop-color:#008EBC"/>
				<stop  offset="1" style="stop-color:#030753"/>
			</linearGradient>
			<path id="Tracé_118-11" class="st6" d="M110.1,174.2l9.8,5.2l3.7-7.1l-10.1-8.9L110.1,174.2z"/>
			
				<linearGradient id="Tracé_118-12_1_" gradientUnits="userSpaceOnUse" x1="46.7228" y1="219.0022" x2="46.7228" y2="220.0022" gradientTransform="matrix(-9.6435 7.2669 10.0335 13.3149 -1457.8622 -3200.1658)">
				<stop  offset="0" style="stop-color:#008EBC"/>
				<stop  offset="1" style="stop-color:#030753"/>
			</linearGradient>
			<path id="Tracé_118-12" class="st7" d="M289.9,56.6l-9.9-5l-3.6,7.2l10.2,8.7L289.9,56.6z"/>
			
				<linearGradient id="Tracé_118-13_1_" gradientUnits="userSpaceOnUse" x1="38.4612" y1="215.6669" x2="38.4612" y2="216.6669" gradientTransform="matrix(-4.7181 11.1151 15.3467 6.5143 -3080.3625 -1738.8322)">
				<stop  offset="0" style="stop-color:#008EBC"/>
				<stop  offset="1" style="stop-color:#030753"/>
			</linearGradient>
			<path id="Tracé_118-13" class="st8" d="M49.4,94.2l-11,0.6l0.5,8l13.2,2.4L49.4,94.2z"/>
			
				<linearGradient id="Tracé_118-14_1_" gradientUnits="userSpaceOnUse" x1="9.1431" y1="215.3579" x2="9.1431" y2="216.3579" gradientTransform="matrix(5.0692 5.0692 7.0004 -7.0004 -1454.7032 1623.7516)">
				<stop  offset="0" style="stop-color:#008EBC"/>
				<stop  offset="1" style="stop-color:#030753"/>
			</linearGradient>
			<path id="Tracé_118-14" class="st9" d="M99.9,161.9l-2.1,6.2l4.5,1.5l4.3-6.7L99.9,161.9z"/>
		</g>
	</g>
</g>
</svg>
