<?xml version="1.0" encoding="utf-8"?>
<!-- Generator: Adobe Illustrator 23.0.0, SVG Export Plug-In . SVG Version: 6.00 Build 0)  -->
<svg version="1.1" id="Calque_1" xmlns="http://www.w3.org/2000/svg" xmlns:xlink="http://www.w3.org/1999/xlink" x="0px" y="0px"
	 viewBox="0 0 287 228" style="enable-background:new 0 0 287 228;" xml:space="preserve">
<style type="text/css">
	.st0{opacity:0.7;}
	.st1{opacity:0.3;fill:#929292;enable-background:new    ;}
	.st2{fill:#DEDEDE;}
	.st3{opacity:0.3;fill:url(#Tracé_118-8_1_);enable-background:new    ;}
	.st4{opacity:0.3;fill:url(#Tracé_118-9_1_);enable-background:new    ;}
	.st5{opacity:0.3;fill:url(#Tracé_118-10_1_);enable-background:new    ;}
	.st6{opacity:0.3;fill:url(#Tracé_118-11_1_);enable-background:new    ;}
	.st7{opacity:0.3;fill:url(#Tracé_118-12_1_);enable-background:new    ;}
	.st8{opacity:0.3;fill:url(#Tracé_118-13_1_);enable-background:new    ;}
	.st9{opacity:0.3;fill:url(#Tracé_118-14_1_);enable-background:new    ;}
</style>
<g id="Groupe_519" transform="translate(-10591 -3102)">
	<g id="Groupe_476" transform="translate(12036.733 3911.345) rotate(180)" class="st0">
		<g id="Groupe_412" transform="translate(1157.927 554.351)">
			<path id="Tracé_118" class="st1" d="M87.1,213.3L57,152.2l-44.4,22l18.2,80.7L87.1,213.3z"/>
			<path id="Tracé_118-2" class="st1" d="M167.6,29.2L70.5,130.4l73.8,70.3l143.3-92L167.6,29.2z"/>
			<path id="Tracé_118-3" class="st1" d="M136.7,222.9l14,31.3l22.7-10.3l-7.7-40.9L136.7,222.9z"/>
			<path id="Tracé_118-4" class="st1" d="M102.3,200.3l9.8,5.2l3.7-7.1l-10.1-8.9L102.3,200.3z"/>
			<path id="Tracé_118-5" class="st1" d="M282,82.8l-9.9-5l-3.6,7.2l10.2,8.7L282,82.8z"/>
			<path id="Tracé_118-6" class="st1" d="M41.6,117.9l-11,0.6l0.5,8l13.2,2.4L41.6,117.9z"/>
		</g>
		<path id="Tracé_118-7" class="st2" d="M1248.8,741.1l-2.1,6.2l4.5,1.5l4.3-6.7L1248.8,741.1z"/>
		<g id="Groupe_418" transform="translate(1145.734 551.912)">
			
				<linearGradient id="Tracé_118-8_1_" gradientUnits="userSpaceOnUse" x1="73.738" y1="-8.8088" x2="73.738" y2="-7.8088" gradientTransform="matrix(-6.291133e-15 -102.742 -74.436 4.557891e-15 -568.6206 7778.3198)">
				<stop  offset="0" style="stop-color:#008EBC"/>
				<stop  offset="1" style="stop-color:#030753"/>
			</linearGradient>
			<path id="Tracé_118-8" class="st3" d="M87.1,212.1L57,151l-44.4,22l18.2,80.7L87.1,212.1z"/>
			
				<linearGradient id="Tracé_118-9_1_" gradientUnits="userSpaceOnUse" x1="71.0474" y1="-9.9375" x2="71.0474" y2="-8.9375" gradientTransform="matrix(-198.7206 72.3284 52.4009 143.9703 14781.9063 -3671.9297)">
				<stop  offset="0" style="stop-color:#008EBC"/>
				<stop  offset="1" style="stop-color:#030753"/>
			</linearGradient>
			<path id="Tracé_118-9" class="st4" d="M161.5,29.2L64.4,130.4l73.8,70.3l143.3-92L161.5,29.2z"/>
			
				<linearGradient id="Tracé_118-10_1_" gradientUnits="userSpaceOnUse" x1="67.0375" y1="-8.3008" x2="67.0375" y2="-7.3008" gradientTransform="matrix(-1.8028 51.6255 37.4022 1.3061 573.9328 -3222.1846)">
				<stop  offset="0" style="stop-color:#008EBC"/>
				<stop  offset="1" style="stop-color:#030753"/>
			</linearGradient>
			<path id="Tracé_118-10" class="st5" d="M142.8,222.9l14,31.3l22.7-10.3l-7.7-40.9L142.8,222.9z"/>
			
				<linearGradient id="Tracé_118-11_1_" gradientUnits="userSpaceOnUse" x1="60.976" y1="3.8362" x2="60.976" y2="4.8362" gradientTransform="matrix(9.8031 13.4876 9.7687 -7.1001 -523.4946 -591.1313)">
				<stop  offset="0" style="stop-color:#008EBC"/>
				<stop  offset="1" style="stop-color:#030753"/>
			</linearGradient>
			<path id="Tracé_118-11" class="st6" d="M110.8,202.8l9.8,5.2l3.7-7.1l-10.1-8.9L110.8,202.8z"/>
			
				<linearGradient id="Tracé_118-12_1_" gradientUnits="userSpaceOnUse" x1="81.8673" y1="-21.2207" x2="81.8673" y2="-20.2207" gradientTransform="matrix(-10.0335 -13.3149 -9.6435 7.2669 906.3787 1328.1888)">
				<stop  offset="0" style="stop-color:#008EBC"/>
				<stop  offset="1" style="stop-color:#030753"/>
			</linearGradient>
			<path id="Tracé_118-12" class="st7" d="M290.6,85.2l-9.9-5l-3.6,7.2l10.2,8.7L290.6,85.2z"/>
			
				<linearGradient id="Tracé_118-13_1_" gradientUnits="userSpaceOnUse" x1="75.8959" y1="-26.6829" x2="75.8959" y2="-25.6829" gradientTransform="matrix(-15.3467 -6.5143 -4.7181 11.1151 1087.491 913.1525)">
				<stop  offset="0" style="stop-color:#008EBC"/>
				<stop  offset="1" style="stop-color:#030753"/>
			</linearGradient>
			<path id="Tracé_118-13" class="st8" d="M50.1,122.8l-11,0.6l0.5,8l13.2,2.4L50.1,122.8z"/>
			
				<linearGradient id="Tracé_118-14_1_" gradientUnits="userSpaceOnUse" x1="53.786" y1="-29.4774" x2="53.786" y2="-28.4774" gradientTransform="matrix(-7.0004 7.0004 5.0692 5.0692 625.8705 -35.9922)">
				<stop  offset="0" style="stop-color:#008EBC"/>
				<stop  offset="1" style="stop-color:#030753"/>
			</linearGradient>
			<path id="Tracé_118-14" class="st9" d="M100.6,190.4l-2.1,6.2l4.5,1.5l4.3-6.7L100.6,190.4z"/>
		</g>
	</g>
</g>
</svg>
