<?xml version="1.0" encoding="utf-8"?>
<!-- Generator: Adobe Illustrator 23.0.0, SVG Export Plug-In . SVG Version: 6.00 Build 0)  -->
<svg version="1.1" id="Calque_1" xmlns="http://www.w3.org/2000/svg" xmlns:xlink="http://www.w3.org/1999/xlink" x="0px" y="0px"
	 viewBox="0 0 229 288" style="enable-background:new 0 0 229 288;" xml:space="preserve">
<style type="text/css">
	.st0{opacity:0.7;}
	.st1{opacity:0.3;fill:#929292;enable-background:new    ;}
	.st2{fill:#DEDEDE;}
	.st3{opacity:0.3;fill:url(#Tracé_118-8_1_);enable-background:new    ;}
	.st4{opacity:0.3;fill:url(#Tracé_118-9_1_);enable-background:new    ;}
	.st5{opacity:0.3;fill:url(#Tracé_118-10_1_);enable-background:new    ;}
	.st6{opacity:0.3;fill:url(#Tracé_118-11_1_);enable-background:new    ;}
	.st7{opacity:0.3;fill:url(#Tracé_118-12_1_);enable-background:new    ;}
	.st8{opacity:0.3;fill:url(#Tracé_118-13_1_);enable-background:new    ;}
	.st9{opacity:0.3;fill:url(#Tracé_118-14_1_);enable-background:new    ;}
</style>
<g id="Groupe_517" transform="translate(-10026.001 -3077)">
	<g id="Groupe_455" transform="translate(10835.346 1931.266) rotate(90)" class="st0">
		<g id="Groupe_412" transform="translate(1157.927 554.351)">
			<path id="Tracé_118" class="st1" d="M75.5,213l-30.1-61.2l-44.4,22l18.2,80.7L75.5,213z"/>
			<path id="Tracé_118-2" class="st1" d="M156,28.9L58.9,130.1l73.8,70.3l143.3-92L156,28.9z"/>
			<path id="Tracé_118-3" class="st1" d="M125.1,222.6l14,31.3l22.7-10.3l-7.7-40.9L125.1,222.6z"/>
			<path id="Tracé_118-4" class="st1" d="M90.7,200l9.8,5.2l3.7-7.1l-10.1-8.9L90.7,200z"/>
			<path id="Tracé_118-5" class="st1" d="M270.4,82.4l-9.9-5l-3.6,7.2l10.2,8.7L270.4,82.4z"/>
			<path id="Tracé_118-6" class="st1" d="M30,117.6l-11,0.6l0.5,8l13.2,2.4L30,117.6z"/>
		</g>
		<path id="Tracé_118-7" class="st2" d="M1237.2,740.8l-2.1,6.2l4.5,1.5l4.3-6.7L1237.2,740.8z"/>
		<g id="Groupe_418" transform="translate(1145.734 551.912)">
			
				<linearGradient id="Tracé_118-8_1_" gradientUnits="userSpaceOnUse" x1="269.1033" y1="28.8841" x2="269.1033" y2="29.8841" gradientTransform="matrix(74.436 0 0 -102.742 -19955.4844 3169.6301)">
				<stop  offset="0" style="stop-color:#008EBC"/>
				<stop  offset="1" style="stop-color:#030753"/>
			</linearGradient>
			<path id="Tracé_118-8" class="st3" d="M75.5,211.8l-30.1-61.2l-44.4,22l18.2,80.7L75.5,211.8z"/>
			
				<linearGradient id="Tracé_118-9_1_" gradientUnits="userSpaceOnUse" x1="265.4536" y1="27.9144" x2="265.4536" y2="28.9144" gradientTransform="matrix(-52.4009 -143.9703 -198.7206 72.3284 19588.1777 36234.2461)">
				<stop  offset="0" style="stop-color:#008EBC"/>
				<stop  offset="1" style="stop-color:#030753"/>
			</linearGradient>
			<path id="Tracé_118-9" class="st4" d="M149.9,28.9L52.8,130.1l73.8,70.3l143.3-92L149.9,28.9z"/>
			
				<linearGradient id="Tracé_118-10_1_" gradientUnits="userSpaceOnUse" x1="259.8268" y1="28.8734" x2="259.8268" y2="29.8734" gradientTransform="matrix(-37.4022 -1.3061 -1.8028 51.6255 9901.1709 -923.7289)">
				<stop  offset="0" style="stop-color:#008EBC"/>
				<stop  offset="1" style="stop-color:#030753"/>
			</linearGradient>
			<path id="Tracé_118-10" class="st5" d="M131.2,222.6l14,31.3l22.7-10.3l-7.7-40.9L131.2,222.6z"/>
			
				<linearGradient id="Tracé_118-11_1_" gradientUnits="userSpaceOnUse" x1="250.7704" y1="37.3205" x2="250.7704" y2="38.3205" gradientTransform="matrix(-9.7687 7.1001 9.8031 13.4876 2183.9885 -2080.1143)">
				<stop  offset="0" style="stop-color:#008EBC"/>
				<stop  offset="1" style="stop-color:#030753"/>
			</linearGradient>
			<path id="Tracé_118-11" class="st6" d="M99.2,202.5l9.8,5.2l3.7-7.1l-10.1-8.9L99.2,202.5z"/>
			
				<linearGradient id="Tracé_118-12_1_" gradientUnits="userSpaceOnUse" x1="281.0291" y1="20.3547" x2="281.0291" y2="21.3547" gradientTransform="matrix(9.6435 -7.2669 -10.0335 -13.3149 -2227.856 2396.8572)">
				<stop  offset="0" style="stop-color:#008EBC"/>
				<stop  offset="1" style="stop-color:#030753"/>
			</linearGradient>
			<path id="Tracé_118-12" class="st7" d="M279,84.9l-9.9-5l-3.6,7.2l10.2,8.7L279,84.9z"/>
			
				<linearGradient id="Tracé_118-13_1_" gradientUnits="userSpaceOnUse" x1="273.0937" y1="16.0614" x2="273.0937" y2="17.0614" gradientTransform="matrix(4.7181 -11.1151 -15.3467 -6.5143 -1004.9365 3261.9473)">
				<stop  offset="0" style="stop-color:#008EBC"/>
				<stop  offset="1" style="stop-color:#030753"/>
			</linearGradient>
			<path id="Tracé_118-13" class="st8" d="M38.5,122.5l-11,0.6l0.5,8l13.2,2.4L38.5,122.5z"/>
			
				<linearGradient id="Tracé_118-14_1_" gradientUnits="userSpaceOnUse" x1="242.7224" y1="12.7907" x2="242.7224" y2="13.7907" gradientTransform="matrix(-5.0692 -5.0692 -7.0004 7.0004 1408.2979 1331.6742)">
				<stop  offset="0" style="stop-color:#008EBC"/>
				<stop  offset="1" style="stop-color:#030753"/>
			</linearGradient>
			<path id="Tracé_118-14" class="st9" d="M89,190.1l-2.1,6.2l4.5,1.5l4.3-6.7L89,190.1z"/>
		</g>
	</g>
</g>
</svg>
