<svg xmlns="http://www.w3.org/2000/svg" width="100.706" height="150" viewBox="0 0 100.706 150">
  <path id="header_logo" data-name="header logo" d="M100.525,45.629A55.166,55.166,0,0,0,82.274,8.538a47.211,47.211,0,0,0-4.143-3.391A27.158,27.158,0,0,0,61.98,0H0V124.592a25.734,25.734,0,0,0,1.5,8.721A24.932,24.932,0,0,0,24.9,150a24.639,24.639,0,0,0,20.173-10.539,24.932,24.932,0,0,0,23.4-16.687,25.734,25.734,0,0,0,1.5-8.721v-14.3a55.089,55.089,0,0,0,30.54-45.323c.14-1.471.2-2.941.2-4.453Q100.706,47.774,100.525,45.629ZM41.967,67.667v54.35a17.153,17.153,0,0,1-1.021,5.944,1.264,1.264,0,0,1-.1.245,17.363,17.363,0,0,1-12.628-16.728v-80.9H52.254a15.394,15.394,0,0,1,5.8,1.123,15.042,15.042,0,0,1,4.083,2.39,18.506,18.506,0,0,1,6.744,11.54,18.28,18.28,0,0,1,.32,3.493,19.316,19.316,0,0,1-.72,5.31,18.3,18.3,0,0,1-6.344,9.722,15.042,15.042,0,0,1-4.083,2.39,15.394,15.394,0,0,1-5.8,1.123H41.967ZM91.239,54.432a45.8,45.8,0,0,1-21.274,34.6,43.724,43.724,0,0,1-7.825,3.86v18.587a17.279,17.279,0,0,1-12.608,16.728,24.017,24.017,0,0,0,.26-3.615V76.471h4.963a22.79,22.79,0,0,0,7.385-1.225c.4-.123.781-.266,1.161-.409a23.6,23.6,0,0,0,6.664-4.044,27.411,27.411,0,0,0,9.206-16.36,27.623,27.623,0,0,0,.48-5.188,26.964,26.964,0,0,0-.24-3.615,27.652,27.652,0,0,0-9.446-17.913A24.585,24.585,0,0,0,63.3,23.672c-.38-.143-.76-.286-1.161-.408a22.79,22.79,0,0,0-7.385-1.225H20.173v92.014a25.734,25.734,0,0,0,1.5,8.721A25.215,25.215,0,0,0,33.9,136.765a16.6,16.6,0,0,1-8.886,2.574,16.968,16.968,0,0,1-15.93-11.377,17.163,17.163,0,0,1-1.041-5.944V8.538H57.638a27.029,27.029,0,0,1,17.571,6.23,45.724,45.724,0,0,1,16.03,30.862,39.082,39.082,0,0,1,.22,4.35C91.46,51.491,91.38,52.962,91.239,54.432Z" fill="#fbc02c"/>
</svg>
